<svg xmlns="http://www.w3.org/2000/svg" viewBox="0 0 512 512"><defs><linearGradient id="bg" x1="0" y1="0" x2="0" y2="1"><stop offset="0" stop-color="#33679A"/><stop offset="1" stop-color="#1A3757"/></linearGradient></defs><rect width="512" height="512" rx="112" fill="url(#bg)"/>
<g transform="translate(-14 4)">
  <path d="M206 298 L236 300 L258 384 Q262 400 246 404 L232 407 Q218 410 214 396Z" fill="#B9CDE3"/>
  <rect x="118" y="206" width="62" height="100" rx="20" fill="#DCE7F3"/>
  <path d="M170 206 L330 128 Q350 119 350 141 V371 Q350 393 330 384 L170 306Z" fill="#FFFFFF"/>
  <path d="M170 256 H350 V371 Q350 393 330 384 L170 306Z" fill="#E3ECF6"/>
  <rect x="336" y="118" width="34" height="276" rx="17" fill="#F2B33D"/>
  <rect x="353" y="118" width="17" height="276" rx="8.5" fill="#DE9A26"/>
  <g fill="none" stroke="#F2B33D" stroke-width="20" stroke-linecap="round">
    <path d="M404 206 Q428 256 404 306"/>
    <path d="M438 170 Q478 256 438 342"/>
  </g>
</g></svg>